HIERARCHY
ROOT Hips
{
	OFFSET -1.602300 6.242603 43.997101
	CHANNELS 6 Xposition Yposition Zposition Zrotation Xrotation Yrotation
	JOINT Chest
	{
		OFFSET -0.204900 1.598101 7.917301
		CHANNELS 6 Xposition Yposition Zposition Zrotation Xrotation Yrotation
		JOINT Chest2
		{
			OFFSET 0.000000 0.000000 3.404099
			CHANNELS 6 Xposition Yposition Zposition Zrotation Xrotation Yrotation
			JOINT Neck
			{
				OFFSET 0.000000 0.000000 7.928600
				CHANNELS 6 Xposition Yposition Zposition Zrotation Xrotation Yrotation
				JOINT Head
				{
					OFFSET 0.000000 0.000000 2.173897
					CHANNELS 6 Xposition Yposition Zposition Zrotation Xrotation Yrotation
					End Site
					{
						OFFSET 0.000000 0.000001 10.404503
					}
				}
			}
			JOINT LeftCollar
			{
				OFFSET 2.833800 -1.396299 4.843300
				CHANNELS 6 Xposition Yposition Zposition Zrotation Xrotation Yrotation
				JOINT LeftShoulder
				{
					OFFSET 4.363600 0.000000 0.000000
					CHANNELS 6 Xposition Yposition Zposition Zrotation Xrotation Yrotation
					JOINT LeftElbow
					{
						OFFSET 0.000000 -0.000001 -10.306900
						CHANNELS 6 Xposition Yposition Zposition Zrotation Xrotation Yrotation
						JOINT LeftWrist
						{
							OFFSET 0.000000 -0.000001 -12.404900
							CHANNELS 6 Xposition Yposition Zposition Zrotation Xrotation Yrotation
							End Site
							{
								OFFSET 0.000000 0.000000 -2.173901
							}
						}
					}
				}
			}
			JOINT RightCollar
			{
				OFFSET -2.354800 -1.897200 5.063099
				CHANNELS 6 Xposition Yposition Zposition Zrotation Xrotation Yrotation
				JOINT RightShoulder
				{
					OFFSET -4.375800 0.000000 0.000000
					CHANNELS 6 Xposition Yposition Zposition Zrotation Xrotation Yrotation
					JOINT RightElbow
					{
						OFFSET 0.000000 -0.000001 -10.005001
						CHANNELS 6 Xposition Yposition Zposition Zrotation Xrotation Yrotation
						JOINT RightWrist
						{
							OFFSET 0.000000 -0.000001 -13.174900
							CHANNELS 6 Xposition Yposition Zposition Zrotation Xrotation Yrotation
							End Site
							{
								OFFSET 0.000000 0.000000 -2.173901
							}
						}
					}
				}
			}
		}
	}
	JOINT LeftHip
	{
		OFFSET 2.240600 0.386800 -2.614101
		CHANNELS 6 Xposition Yposition Zposition Zrotation Xrotation Yrotation
		JOINT LeftKnee
		{
			OFFSET 0.000000 -0.000001 -18.592899
			CHANNELS 6 Xposition Yposition Zposition Zrotation Xrotation Yrotation
			JOINT LeftAnkle
			{
				OFFSET 0.000000 -0.000001 -18.765800
				CHANNELS 6 Xposition Yposition Zposition Zrotation Xrotation Yrotation
				End Site
				{
					OFFSET 0.000000 -8.655000 0.000000
				}
			}
		}
	}
	JOINT RightHip
	{
		OFFSET -2.014900 -0.220900 -2.615898
		CHANNELS 6 Xposition Yposition Zposition Zrotation Xrotation Yrotation
		JOINT RightKnee
		{
			OFFSET 0.000000 -0.000001 -18.633900
			CHANNELS 6 Xposition Yposition Zposition Zrotation Xrotation Yrotation
			JOINT RightAnkle
			{
				OFFSET 0.000000 -0.000001 -18.285101
				CHANNELS 6 Xposition Yposition Zposition Zrotation Xrotation Yrotation
				End Site
				{
					OFFSET 0.000000 -7.524500 0.000000
				}
			}
		}
	}
}
MOTION
Frames: 6
Frame Time: 0.041667
-5.619099 24.888798 7.877907 2.860845 11.691186 5.752709 -0.204900 1.598097 7.917308 -2.495051 4.265624 -4.981365 -0.000001 0.000002 3.404100 3.072986 -14.990877 -1.043191 -0.000000 0.000002 7.928602 0.068011 -3.061783 -1.739381 0.000000 0.000001 2.173908 0.592443 -6.726679 1.752664 2.833802 -1.396300 4.843305 2.748527 8.087391 15.478080 4.363589 0.000004 -0.000005 -14.342333 -0.235303 -102.641187 0.000001 0.000002 -10.306898 270.233702 -180.119561 179.398224 0.000000 0.000000 -12.404892 -486.298049 183.629677 -180.777335 -2.354803 -1.897199 5.063107 7.041426 7.026514 -12.461857 -4.375792 -0.000000 0.000002 -3.142834 28.053506 95.624861 -0.000001 0.000001 -10.004995 -232.031362 -179.598349 -178.911382 -0.000002 -0.000000 -13.174900 -224.348451 -190.525081 161.988960 2.240599 0.386803 -2.614104 146.785874 -31.413741 117.515590 0.000002 0.000001 -18.592896 -109.640792 36.848840 136.489870 -0.000001 -0.000001 -18.765799 8.870602 33.120363 1.453244 -2.014894 -0.220900 -2.615900 -119.056372 -9.293236 -106.120902 -0.000001 0.000002 -18.633883 184.848278 25.460237 -183.667858 -0.000006 -0.000004 -18.285084 -8.862629 35.358397 -215.581725
-5.619700 24.875805 7.882408 2.899755 11.787917 5.751608 -0.204901 1.598100 7.917306 -2.531235 4.329810 -4.931945 0.000000 -0.000004 3.404103 3.015285 -15.061614 -1.065171 0.000000 -0.000002 7.928598 0.115047 -3.183828 -1.807618 0.000000 -0.000001 2.173904 0.599791 -6.711004 1.759973 2.833803 -1.396301 4.843298 2.799340 8.109813 15.510262 4.363595 0.000003 -0.000000 -14.553146 -0.218958 -102.935069 -0.000003 0.000000 -10.306893 270.127916 -180.147783 179.358199 -0.000003 -0.000000 -12.404889 -486.379465 183.663363 -180.719948 -2.354803 -1.897201 5.063103 7.026270 7.065663 -12.581068 -4.375793 0.000001 0.000005 -3.510545 29.332264 96.025500 -0.000003 -0.000004 -10.004992 -231.010658 -179.695283 -178.600554 -0.000006 -0.000002 -13.174891 -223.667344 -190.346348 162.016240 2.240600 0.386799 -2.614106 146.792008 -31.417685 117.537092 -0.000002 -0.000000 -18.592890 -109.582845 36.866605 136.536834 -0.000001 0.000000 -18.765800 8.945751 33.176076 1.009021 -2.014896 -0.220900 -2.615902 -119.109907 -9.276719 -106.183623 -0.000001 0.000003 -18.633883 184.865654 25.452316 -183.687720 -0.000006 -0.000005 -18.285086 -8.839673 35.365770 -215.640328
-5.619900 24.863302 7.887299 2.963331 11.882477 5.717020 -0.204900 1.598099 7.917305 -2.593665 4.400921 -4.846336 -0.000001 0.000003 3.404095 2.973731 -15.115361 -1.079148 -0.000001 0.000003 7.928600 0.103563 -3.311446 -1.920907 0.000000 0.000001 2.173897 0.630550 -6.713997 1.799548 2.833801 -1.396297 4.843304 2.822296 8.116340 15.454708 4.363593 0.000002 0.000002 -14.777519 -0.345673 -103.149585 0.000000 -0.000002 -10.306898 269.963418 -180.171552 179.327737 -0.000002 -0.000002 -12.404896 -486.512244 183.712090 -180.688447 -2.354804 -1.897196 5.063102 7.015015 7.064007 -12.680558 -4.375786 0.000000 -0.000005 -3.821682 30.194023 96.423577 0.000001 -0.000005 -10.004992 -230.209504 -179.815508 -178.463650 -0.000006 0.000000 -13.174891 -223.321969 -190.163613 162.036075 2.240600 0.386800 -2.614103 146.751901 -31.369010 117.522612 0.000001 -0.000001 -18.592894 -109.576629 36.900244 136.588006 -0.000001 -0.000000 -18.765799 8.963045 33.252704 0.675338 -2.014898 -0.220900 -2.615899 -119.189014 -9.274473 -106.255211 0.000001 0.000004 -18.633881 184.887442 25.443788 -183.702213 -0.000006 -0.000008 -18.285086 -8.820394 35.372389 -215.691842
-5.619600 24.851902 7.892002 3.037552 11.992285 5.682492 -0.204900 1.598101 7.917299 -2.665097 4.466402 -4.779483 -0.000000 0.000001 3.404096 2.940060 -15.160998 -1.090937 -0.000001 0.000004 7.928600 0.080757 -3.454582 -1.927626 -0.000000 0.000001 2.173903 0.642887 -6.730650 1.731999 2.833799 -1.396299 4.843306 2.826098 8.129869 15.352541 4.363592 0.000004 -0.000008 -14.992463 -0.535430 -103.311481 -0.000005 -0.000001 -10.306896 269.736055 -180.193614 179.306208 -0.000003 0.000000 -12.404899 -486.640487 183.727116 -180.662834 -2.354803 -1.897199 5.063108 6.996126 7.051479 -12.718738 -4.375789 -0.000001 -0.000002 -4.032347 30.697370 96.763946 0.000002 -0.000001 -10.004991 -229.614895 -179.838758 -178.374270 -0.000004 -0.000000 -13.174896 -223.252738 -190.089287 162.066046 2.240600 0.386806 -2.614106 146.698380 -31.276027 117.516055 -0.000001 -0.000001 -18.592894 -109.603629 36.934552 136.636131 -0.000002 -0.000001 -18.765799 8.950959 33.335616 0.423012 -2.014896 -0.220896 -2.615898 -119.282000 -9.252080 -106.339789 -0.000001 0.000004 -18.633883 184.911075 25.434894 -183.712063 -0.000006 -0.000007 -18.285088 -8.804700 35.376695 -215.734148
-5.618598 24.841602 7.896111 3.111980 12.126782 5.664023 -0.204901 1.598100 7.917309 -2.736554 4.499413 -4.750379 -0.000001 0.000004 3.404103 2.901388 -15.198279 -1.101469 0.000000 -0.000001 7.928603 0.075374 -3.593970 -1.923985 0.000001 0.000000 2.173905 0.633524 -6.786422 1.682863 2.833802 -1.396303 4.843305 2.803965 8.165112 15.312823 4.363595 0.000005 -0.000003 -15.192253 -0.712734 -103.556063 -0.000001 -0.000001 -10.306893 269.510249 -180.238529 179.262440 0.000001 -0.000002 -12.404896 -486.708953 183.705629 -180.652397 -2.354803 -1.897201 5.063106 7.011001 7.071404 -12.735706 -4.375793 -0.000002 -0.000001 -4.167232 30.908361 97.074952 -0.000003 0.000003 -10.004993 -229.122862 -179.861981 -178.322374 -0.000004 -0.000000 -13.174890 -223.416116 -190.069411 162.066729 2.240600 0.386800 -2.614104 146.653997 -31.149761 117.541723 -0.000001 0.000001 -18.592892 -109.644501 36.963577 136.676211 -0.000001 -0.000000 -18.765799 8.926319 33.414484 0.245593 -2.014898 -0.220899 -2.615900 -119.380054 -9.199774 -106.440268 0.000000 0.000003 -18.633884 184.934106 25.426284 -183.720860 -0.000006 -0.000007 -18.285084 -8.790429 35.380038 -215.771659
-5.616999 24.832006 7.899609 3.174591 12.300452 5.650752 -0.204902 1.598102 7.917308 -2.801693 4.468071 -4.733411 -0.000001 -0.000001 3.404097 2.888610 -15.210645 -1.092201 -0.000000 -0.000000 7.928603 0.077054 -3.740099 -1.949713 0.000000 -0.000000 2.173896 0.590441 -6.867477 1.653995 2.833800 -1.396299 4.843307 2.747679 8.217799 15.258100 4.363590 0.000005 -0.000002 -15.336234 -0.736531 -103.806643 -0.000002 0.000001 -10.306897 269.521560 -180.267188 179.237824 -0.000005 -0.000001 -12.404899 -486.833426 183.681737 -180.644911 -2.354803 -1.897201 5.063102 7.051010 7.139820 -12.704811 -4.375793 -0.000001 -0.000005 -4.194333 30.822858 97.264947 0.000001 0.000001 -10.004991 -228.789166 -179.868018 -178.234551 -0.000002 -0.000002 -13.174895 -223.660241 -190.128779 162.026540 2.240599 0.386806 -2.614104 146.631157 -30.981574 117.600353 0.000001 -0.000002 -18.592896 -109.678665 36.988152 136.699024 0.000000 -0.000001 -18.765800 8.890151 33.495282 0.158929 -2.014894 -0.220896 -2.615900 -119.477016 -9.127832 -106.575915 -0.000000 0.000006 -18.633884 184.953531 25.418110 -183.730736 -0.000007 -0.000007 -18.285088 -8.777526 35.384126 -215.808310
